<svg width="220" height="28" fill="none" xmlns="http://www.w3.org/2000/svg"><path d="M1.52 1.988v-1h-1v1h1zM1.52 26h-1v1h1v-1zm6.228 0v1h1v-1h-1zm0-9.216l.839-.544-1.839-2.836v3.38h1zM13.724 26l-.839.544.296.456h.543v-1zm7.74 0v1h2.025l-1.231-1.608-.794.608zm-7.524-9.828l-.19-.982-1.586.307.982 1.283.794-.608zm3.312-1.656l.693.72.003-.002-.696-.718zm-.144-10.404l-.721.693.005.005.716-.698zm-9.36 2.7v-1h-1v1h1zm4.176.936l-.707.707.012.012.013.012.682-.731zm.036 4.032l.69.724.008-.008.01-.009-.708-.707zm-4.212.972h-1v1h1v-1zM.52 1.988V26h2V1.988h-2zM1.52 27h6.228v-2H1.52v2zm7.228-1v-9.216h-2V26h2zm-1.839-8.672l5.976 9.216 1.678-1.088-5.976-9.216-1.678 1.088zM13.724 27h7.74v-2h-7.74v2zm8.534-1.608l-7.524-9.828-1.588 1.216 7.524 9.828 1.588-1.216zm-8.128-8.238c1.261-.244 2.71-.855 3.815-1.917l-1.386-1.442c-.768.738-1.838 1.207-2.809 1.395l.38 1.964zm3.818-1.92c1.414-1.371 2.212-3.447 2.212-5.722h-2c0 1.83-.642 3.353-1.604 4.286l1.392 1.436zm2.212-5.722c0-2.115-.751-4.472-2.336-6.098L16.392 4.81c1.151 1.182 1.768 3 1.768 4.702h2zm-2.33-6.093C15.775 1.283 13.121.988 11.24.988v2c1.718 0 3.672.281 5.147 1.817l1.442-1.386zM11.24.988H1.52v2h9.72v-2zM7.748 7.812h1.188v-2H7.748v2zm1.188 0c1.232 0 1.967.33 2.28.643l1.415-1.414c-.838-.839-2.191-1.229-3.695-1.229v2zm2.306.667c.305.285.51.795.51 1.285h2c0-.95-.37-2.024-1.146-2.747l-1.364 1.462zm.51 1.285c0 .512-.233 1.043-.5 1.309l1.415 1.414c.67-.67 1.085-1.723 1.085-2.723h-2zm-.482 1.292c-.217.207-.569.39-1.025.517a5.015 5.015 0 01-1.309.179v2a7.01 7.01 0 001.85-.253c.633-.178 1.325-.482 1.864-.995l-1.38-1.448zm-2.334.696H7.748v2h1.188v-2zm-.188 1v-5.94h-2v5.94h2zm36.978-7.74l-.69.723.004.004.686-.727zm-18.936 0l.687.727.004-.004-.69-.723zm0 17.964l-.691.722.691-.722zm18.936 0l.691.723h.001l-.692-.723zM41.082 9.404l.696-.719-.008-.007-.688.726zm0 9.216l.707.707-.707-.707zm-9.684-.036l.696-.718-.003-.003-.693.721zm0-9.18l.698.717.01-.01-.708-.707zm19.108 4.608c0-3.445-1.313-7.104-4.093-9.727L45.04 5.739c2.332 2.2 3.466 5.31 3.466 8.273h2zm-4.089-9.723C43.757 1.746 40.04.448 36.258.448v2c3.346 0 6.542 1.15 8.777 3.287l1.382-1.446zM36.258.448c-3.782 0-7.498 1.298-10.159 3.841l1.382 1.446c2.235-2.137 5.431-3.287 8.777-3.287v-2zM26.104 4.285c-2.78 2.623-4.094 6.282-4.094 9.727h2c0-2.963 1.135-6.072 3.467-8.273l-1.373-1.454zm-4.094 9.727c0 3.415 1.318 7.032 4.089 9.686l1.383-1.444c-2.341-2.242-3.472-5.32-3.472-8.242h-2zm4.09 9.687c2.66 2.543 6.376 3.841 10.158 3.841v-2c-3.346 0-6.542-1.15-8.777-3.287L26.1 23.7zm10.158 3.841c3.782 0 7.498-1.298 10.16-3.841l-1.383-1.446c-2.235 2.137-5.43 3.287-8.777 3.287v2zm10.16-3.842c2.77-2.654 4.088-6.271 4.088-9.686h-2c0 2.921-1.13 6-3.471 8.242l1.383 1.444zM36.258 8.496c1.419 0 3.003.562 4.137 1.634l1.374-1.452c-1.53-1.448-3.617-2.182-5.51-2.182v2zm4.129 1.627a5.48 5.48 0 011.64 3.889h2a7.48 7.48 0 00-2.25-5.327l-1.39 1.438zm1.64 3.889c0 1.537-.698 2.947-1.652 3.9l1.414 1.415c1.279-1.278 2.237-3.18 2.237-5.315h-2zm-1.652 3.9c-.925.926-2.253 1.58-4.117 1.58v2c2.384 0 4.224-.858 5.531-2.165l-1.414-1.414zm-4.117 1.58c-1.814 0-3.188-.68-4.164-1.626l-1.392 1.436c1.329 1.287 3.194 2.19 5.556 2.19v-2zm-4.167-1.63c-.763-.732-1.6-1.963-1.6-3.742h-2c0 2.469 1.178 4.19 2.215 5.185l1.385-1.442zm-1.6-3.742c0-1.465.531-2.955 1.604-3.999l-1.394-1.434c-1.518 1.476-2.21 3.514-2.21 5.433h2zm1.614-4.009c1.077-1.076 2.641-1.615 4.153-1.615v-2c-1.944 0-4.051.685-5.567 2.2l1.414 1.415zM68.905 26l-.938.344.24.656h.699v-1zm6.66 0v1h1.446l-.51-1.352-.935.352zM66.53 1.988l.936-.352-.244-.648h-.692v1zm-6.804 0v-1h-.688l-.246.642.934.358zM50.51 26l-.934-.358L49.055 27h1.455v-1zm6.588 0v1h.676l.252-.627-.928-.373zm1.62-4.032v-1h-.676l-.252.627.928.373zm8.712 0l.939-.344-.24-.656h-.7v1zm-6.984-4.752l-.947-.32-.447 1.32h1.394v-1zm2.628-7.776l.945-.328-.958-2.757-.934 2.765.947.32zm2.7 7.776v1h1.406l-.462-1.328-.944.328zM68.906 27h6.66v-2h-6.66v2zm7.596-1.352L67.466 1.636l-1.872.704 9.036 24.012 1.872-.704zM66.53.988h-6.804v2h6.804v-2zm-7.738.642l-9.216 24.012 1.867.716L60.66 2.346l-1.867-.716zM50.51 27h6.588v-2H50.51v2zm7.516-.627l1.62-4.032-1.856-.746-1.62 4.032 1.856.746zm.692-3.405h8.712v-2h-8.712v2zm7.773-.656l1.476 4.032 1.878-.688-1.476-4.032-1.878.688zm-5.098-4.776l2.628-7.776-1.895-.64-2.627 7.776 1.894.64zm.736-7.768l2.7 7.776 1.89-.656-2.7-7.776-1.89.656zm3.645 6.448h-5.328v2h5.328v-2zm30.49 6.148l-.707-.707.707.707zM96.048 5.3l-.694.72h.001l.693-.72zM78.336 1.988v-1h-1v1h1zm0 24.012h-1v1h1v-1zm6.228-18.72v-1h-1v1h1zm6.48 1.512l.685-.729-.005-.004-.68.733zm.036 10.188l-.69-.723-.009.008.7.715zm-6.516 1.728h-1v1h1v-1zM87.048 27c4.39 0 7.843-1.849 9.924-3.929l-1.415-1.414C93.821 23.393 90.866 25 87.048 25v2zm9.924-3.929c2.578-2.579 3.424-5.672 3.424-9.023h-2c0 2.985-.737 5.507-2.839 7.609l1.415 1.414zm3.424-9.023c0-2.713-.563-6.496-3.654-9.469l-1.387 1.442c2.525 2.427 3.041 5.556 3.041 8.027h2zM96.743 4.58C93.353 1.31 88.978.988 86.508.988v2c2.355 0 6.043.327 8.846 3.032l1.389-1.44zM86.508.988h-8.172v2h8.172v-2zm-9.172 1V26h2V1.988h-2zm1 25.012h8.712v-2h-8.712v2zm6.228-18.72h1.512v-2h-1.512v2zm1.512 0c1.53 0 3.117.16 4.289 1.245l1.36-1.466c-1.781-1.65-4.081-1.779-5.649-1.779v2zm4.284 1.24c.922.868 1.556 2.47 1.556 4.528h2c0-2.406-.734-4.62-2.187-5.985l-1.37 1.458zm1.556 4.528c0 2.368-.915 3.625-1.526 4.209l1.38 1.446c.974-.928 2.146-2.695 2.146-5.655h-2zm-1.535 4.217c-1.315 1.286-3.073 1.443-4.557 1.443v2c1.54 0 4.03-.13 5.956-2.013l-1.399-1.43zm-4.557 1.443h-1.26v2h1.26v-2zm-.26 1V7.28h-2v13.428h2zm25.126 3.132l-.884-.467-.416.787.733.504.567-.824zm3.636 1.908l.345-.939h-.003l-.342.939zm11.808-1.656l-.707-.707.707.707zm.72-10.332l-.736.678.009.009.727-.687zm-4.356-2.376l.296-.955-.007-.002-.289.957zm-1.908-.576l.289-.957-.008-.003-.281.96zm-2.088-1.08l-.789.614.01.013.011.013.768-.64zm.288-2.376l-.685-.728-.011.01-.011.01.707.708zm6.156.9l-.619.785.956.754.553-1.084-.89-.455zm2.484-4.86l.89.455.451-.881-.877-.46-.464.886zm-13.572.324l.707.707-.707-.707zm-.828 10.044l.743-.669-.007-.008-.736.677zm3.456 1.944l-.306.952.009.003.297-.955zm1.62.504l-.297.955.008.002.289-.957zm3.096 1.26l-.662.75.006.005.005.004.651-.759zm.072 2.952l-.707-.707-.015.015-.015.016.737.676zm-7.92-1.62l.687-.727-.956-.904-.615 1.164.884.467zm-3.231 5.864c1.824 1.254 3.422 1.864 3.861 2.024l.684-1.88c-.353-.128-1.779-.67-3.411-1.792l-1.134 1.648zm3.858 2.023c1.904.7 3.468.853 5.061.853v-2c-1.431 0-2.747-.134-4.371-.73l-.69 1.877zm5.061.853c2.653 0 5.467-.409 7.799-2.74l-1.414-1.415c-1.772 1.772-3.926 2.155-6.385 2.155v2zm7.799-2.74c1.974-1.975 2.561-4.39 2.561-6.756h-2c0 2.026-.493 3.859-1.975 5.34l1.414 1.415zm2.561-6.756c0-1.824-.37-3.434-1.821-4.97l-1.454 1.373c.997 1.055 1.275 2.11 1.275 3.597h2zm-1.812-4.962c-1.46-1.584-3.285-2.185-4.796-2.653l-.592 1.91c1.513.468 2.856.947 3.916 2.098l1.472-1.354zm-4.803-2.655l-1.908-.576-.578 1.914 1.908.576.578-1.914zm-1.916-.579c-1.343-.393-1.581-.737-1.601-.76l-1.536 1.28c.34.409.966.929 2.575 1.4l.562-1.92zm-1.58-.734c-.071-.092-.113-.172-.113-.466h-2c0 .57.102 1.138.535 1.694l1.578-1.228zm-.113-.466c0-.171.058-.328.319-.589l-1.414-1.414c-.459.459-.905 1.094-.905 2.003h2zm.297-.568c.347-.326.873-.448 1.367-.448v-2c-.73 0-1.86.166-2.737.992l1.37 1.456zm1.367-.448c.638 0 1.815.089 3.485 1.405l1.238-1.57c-2.074-1.636-3.705-1.835-4.723-1.835v2zm4.994 1.075l2.484-4.86-1.78-.91-2.484 4.86 1.78.91zm2.058-6.2c-2.389-1.252-5.319-2.059-7.88-2.059v2c2.191 0 4.805.705 6.952 1.83l.928-1.772zm-7.88-2.059c-3.17 0-5.444 1.142-6.863 2.56l1.414 1.415c1.029-1.029 2.787-1.975 5.449-1.975v-2zm-6.863 2.56c-1.208 1.209-2.489 3.255-2.489 6.504h2c0-2.655 1.023-4.209 1.903-5.089l-1.414-1.414zm-2.489 6.504c0 1.272.139 3.3 1.632 4.925l1.472-1.354c-.955-1.039-1.104-2.396-1.104-3.571h-2zm1.625 4.917c1.169 1.3 2.887 1.904 3.893 2.227l.612-1.904c-1.01-.325-2.244-.8-3.019-1.661l-1.486 1.338zm3.902 2.23l1.62.504.594-1.91-1.62-.504-.594 1.91zm1.628.506c.797.241 1.372.408 1.837.582.455.171.713.317.886.47l1.324-1.499c-.439-.386-.955-.636-1.508-.843-.543-.204-1.21-.397-1.961-.624l-.578 1.914zm2.734 1.062c.261.224.335.476.335.681h2c0-.73-.286-1.559-1.033-2.2l-1.302 1.52zm.335.681c0 .338-.141.626-.319.805l1.414 1.414a3.145 3.145 0 00.905-2.219h-2zm-.349.836c-.164.18-.625.504-1.675.504v2c1.47 0 2.521-.467 3.149-1.152l-1.474-1.352zm-1.675.504c-1.811 0-3.594-1.014-4.821-2.175l-1.374 1.453c1.437 1.36 3.686 2.722 6.195 2.722v-2zm-6.392-1.915l-2.664 5.04 1.768.934 2.664-5.04-1.768-.934zm33.51-16.345h1v-1h-1v1zm-13.644 0v-1h-1v1h1zm0 24.012h-1v1h1v-1zm13.644 0v1h1v-1h-1zm0-5.292h1v-1h-1v1zm-7.416 0h-1v1h1v-1zm0-4.14v-1h-1v1h1zm7.02 0v1h1v-1h-1zm0-5.292h1v-1h-1v1zm-7.02 0h-1v1h1v-1zm0-3.996v-1h-1v1h1zm7.416 0v1h1v-1h-1zm0-6.292h-13.644v2h13.644v-2zm-14.644 1V26h2V1.988h-2zm1 25.012h13.644v-2h-13.644v2zm14.644-1v-5.292h-2V26h2zm-1-6.292h-7.416v2h7.416v-2zm-6.416 1v-4.14h-2v4.14h2zm-1-3.14h7.02v-2h-7.02v2zm8.02-1v-5.292h-2v5.292h2zm-1-6.292h-7.02v2h7.02v-2zm-6.02 1V7.28h-2v3.996h2zm-1-2.996h7.416v-2h-7.416v2zm8.416-1V1.988h-2V7.28h2zm2.97-5.292v-1h-1v1h1zm0 24.012h-1v1h1v-1zm6.228 0v1h1v-1h-1zm0-9.216l.839-.544-1.839-2.836v3.38h1zM162.154 26l-.839.544.295.456h.544v-1zm7.74 0v1h2.025l-1.231-1.608-.794.608zm-7.524-9.828l-.19-.982-1.586.307.982 1.283.794-.608zm3.312-1.656l.693.72.003-.002-.696-.718zm-.144-10.404l-.721.693.004.005.717-.698zm-9.36 2.7v-1h-1v1h1zm4.176.936l-.707.707.012.012.012.012.683-.731zm.036 4.032l.689.724.009-.008.009-.009-.707-.707zm-4.212.972h-1v1h1v-1zM148.95 1.988V26h2V1.988h-2zm1 25.012h6.228v-2h-6.228v2zm7.228-1v-9.216h-2V26h2zm-1.839-8.672l5.976 9.216 1.678-1.088-5.976-9.216-1.678 1.088zM162.154 27h7.74v-2h-7.74v2zm8.534-1.608l-7.524-9.828-1.588 1.216 7.524 9.828 1.588-1.216zm-8.128-8.238c1.261-.244 2.711-.855 3.815-1.917l-1.386-1.442c-.768.738-1.839 1.207-2.809 1.395l.38 1.964zm3.818-1.92c1.414-1.371 2.212-3.447 2.212-5.722h-2c0 1.83-.642 3.353-1.604 4.286l1.392 1.436zm2.212-5.722c0-2.115-.752-4.472-2.336-6.098l-1.433 1.396c1.152 1.182 1.769 3 1.769 4.702h2zm-2.331-6.093c-2.053-2.136-4.707-2.431-6.589-2.431v2c1.718 0 3.671.281 5.147 1.817l1.442-1.386zM159.67.988h-9.72v2h9.72v-2zm-3.492 6.824h1.188v-2h-1.188v2zm1.188 0c1.232 0 1.967.33 2.281.643l1.414-1.414c-.839-.839-2.191-1.229-3.695-1.229v2zm2.305.667c.305.285.511.795.511 1.285h2c0-.95-.371-2.024-1.146-2.747l-1.365 1.462zm.511 1.285c0 .512-.233 1.043-.499 1.309l1.414 1.414c.67-.67 1.085-1.723 1.085-2.723h-2zm-.482 1.292c-.217.207-.569.39-1.025.517a5.018 5.018 0 01-1.309.179v2c.548 0 1.207-.073 1.85-.253.633-.178 1.325-.482 1.863-.995l-1.379-1.448zm-2.334.696h-1.188v2h1.188v-2zm-.188 1v-5.94h-2v5.94h2zM172.52 1.988v-1h-1v1h1zm0 24.012h-1v1h1v-1zm6.228 0v1h1v-1h-1zm0-24.012h1v-1h-1v1zm-7.228 0V26h2V1.988h-2zm1 25.012h6.228v-2h-6.228v2zm7.228-1V1.988h-2V26h2zm-1-25.012h-6.228v2h6.228v-2zm18.701 1h1v-1h-1v1zm-13.644 0v-1h-1v1h1zm0 24.012h-1v1h1v-1zm13.644 0v1h1v-1h-1zm0-5.292h1v-1h-1v1zm-7.416 0h-1v1h1v-1zm0-4.14v-1h-1v1h1zm7.02 0v1h1v-1h-1zm0-5.292h1v-1h-1v1zm-7.02 0h-1v1h1v-1zm0-3.996v-1h-1v1h1zm7.416 0v1h1v-1h-1zm0-6.292h-13.644v2h13.644v-2zm-14.644 1V26h2V1.988h-2zm1 25.012h13.644v-2h-13.644v2zm14.644-1v-5.292h-2V26h2zm-1-6.292h-7.416v2h7.416v-2zm-6.416 1v-4.14h-2v4.14h2zm-1-3.14h7.02v-2h-7.02v2zm8.02-1v-5.292h-2v5.292h2zm-1-6.292h-7.02v2h7.02v-2zm-6.02 1V7.28h-2v3.996h2zm-1-2.996h7.416v-2h-7.416v2zm8.416-1V1.988h-2V7.28h2zm1.889 16.56l-.884-.467-.416.787.734.504.566-.824zm3.636 1.908l.345-.939h-.003l-.342.939zm11.808-1.656l-.707-.707.707.707zm.72-10.332l-.735.678.008.009.727-.687zm-4.356-2.376l.296-.955-.007-.002-.289.957zm-1.908-.576l.289-.957-.008-.003-.281.96zm-2.088-1.08l-.789.614.01.013.011.013.768-.64zm.288-2.376l-.685-.728-.011.01-.011.01.707.708zm6.156.9l-.619.785.956.754.554-1.084-.891-.455zm2.484-4.86l.891.455.45-.881-.877-.46-.464.886zm-13.572.324l.708.707-.708-.707zm-.828 10.044l.744-.669-.007-.008-.737.677zm3.456 1.944l-.306.952.009.003.297-.955zm1.62.504l-.297.955.008.002.289-.957zm3.096 1.26l-.661.75.005.005.006.004.65-.759zm.072 2.952l-.707-.707-.015.015-.015.016.737.676zm-7.92-1.62l.688-.727-.957-.904-.615 1.164.884.467zm-3.23 5.864c1.823 1.254 3.421 1.864 3.861 2.024l.683-1.88c-.352-.128-1.779-.67-3.411-1.792l-1.133 1.648zm3.858 2.023c1.904.7 3.467.853 5.06.853v-2c-1.43 0-2.747-.134-4.371-.73l-.689 1.877zm5.06.853c2.653 0 5.467-.409 7.8-2.74l-1.415-1.415c-1.772 1.772-3.925 2.155-6.385 2.155v2zm7.8-2.74c1.973-1.975 2.56-4.39 2.56-6.756h-2c0 2.026-.492 3.859-1.975 5.34l1.415 1.415zm2.56-6.756c0-1.824-.369-3.434-1.821-4.97l-1.454 1.373c.997 1.055 1.275 2.11 1.275 3.597h2zm-1.812-4.962c-1.46-1.584-3.284-2.185-4.796-2.653l-.591 1.91c1.512.468 2.855.947 3.916 2.098l1.471-1.354zm-4.803-2.655l-1.908-.576-.578 1.914 1.908.576.578-1.914zm-1.916-.579c-1.342-.393-1.581-.737-1.6-.76l-1.537 1.28c.341.409.966.929 2.576 1.4l.561-1.92zm-1.579-.734c-.071-.092-.114-.172-.114-.466h-2c0 .57.102 1.138.535 1.694l1.579-1.228zm-.114-.466c0-.171.058-.328.32-.589l-1.415-1.414c-.458.459-.905 1.094-.905 2.003h2zm.298-.568c.346-.326.872-.448 1.366-.448v-2c-.73 0-1.859.166-2.737.992l1.371 1.456zm1.366-.448c.639 0 1.815.089 3.485 1.405l1.239-1.57c-2.074-1.636-3.706-1.835-4.724-1.835v2zm4.995 1.075l2.484-4.86-1.781-.91-2.484 4.86 1.781.91zm2.057-6.2c-2.388-1.252-5.318-2.059-7.88-2.059v2c2.191 0 4.805.705 6.952 1.83l.928-1.772zm-7.88-2.059c-3.17 0-5.443 1.142-6.863 2.56l1.415 1.415c1.028-1.029 2.787-1.975 5.448-1.975v-2zm-6.863 2.56c-1.208 1.209-2.489 3.255-2.489 6.504h2c0-2.655 1.024-4.209 1.904-5.089l-1.415-1.414zm-2.489 6.504c0 1.272.139 3.3 1.632 4.925l1.473-1.354c-.955-1.039-1.105-2.396-1.105-3.571h-2zm1.625 4.917c1.17 1.3 2.887 1.904 3.893 2.227l.612-1.904c-1.009-.325-2.244-.8-3.018-1.661l-1.487 1.338zm3.902 2.23l1.62.504.594-1.91-1.619-.504-.595 1.91zm1.628.506c.797.241 1.373.408 1.837.582.456.171.713.317.887.47l1.323-1.499c-.438-.386-.955-.636-1.507-.843-.544-.204-1.21-.397-1.961-.624l-.579 1.914zm2.735 1.062c.261.224.334.476.334.681h2c0-.73-.286-1.559-1.033-2.2l-1.301 1.52zm.334.681c0 .338-.14.626-.319.805l1.415 1.414a3.149 3.149 0 00.904-2.219h-2zm-.349.836c-.164.18-.625.504-1.675.504v2c1.471 0 2.522-.467 3.15-1.152l-1.475-1.352zm-1.675.504c-1.811 0-3.593-1.014-4.82-2.175l-1.375 1.453c1.437 1.36 3.687 2.722 6.195 2.722v-2zm-6.392-1.915l-2.664 5.04 1.769.934 2.664-5.04-1.769-.934z" fill="#fff"/></svg>